<?xml version="1.0" encoding="UTF-8"?>
<!DOCTYPE svg PUBLIC "-//W3C//DTD SVG 1.1//EN" "http://www.w3.org/Graphics/SVG/1.1/DTD/svg11.dtd">
<!-- Creator: CorelDRAW 2018 (64-Bit) -->
<svg xmlns="http://www.w3.org/2000/svg" xml:space="preserve" width="1.21691in" height="1.21691in" version="1.1" style="shape-rendering:geometricPrecision; text-rendering:geometricPrecision; image-rendering:optimizeQuality; fill-rule:evenodd; clip-rule:evenodd"
viewBox="0 0 963.96 963.96"
 xmlns:xlink="http://www.w3.org/1999/xlink">
 <defs>
  <style type="text/css">
   <![CDATA[
    .fil1 {fill:#FEFEFE}
    .fil0 {fill:url(#id0)}
   ]]>
  </style>
  <linearGradient id="id0" gradientUnits="userSpaceOnUse" x1="160.38" y1="122.98" x2="803.58" y2="840.97">
   <stop offset="0" style="stop-opacity:1; stop-color:#0570C1"/>
   <stop offset="0.458824" style="stop-opacity:1; stop-color:#087280"/>
   <stop offset="1" style="stop-opacity:1; stop-color:#0B753E"/>
  </linearGradient>
 </defs>
 <g id="Layer_x0020_1">
  <metadata id="CorelCorpID_0Corel-Layer"/>
  <rect class="fil0" x="0" y="-0" width="963.96" height="963.96" rx="242.41" ry="242.41"/>
  <g id="_1602114114032">
   <g>
    <path class="fil1" d="M607.87 577.97c0,37.76 1.22,62.51 -28.91,72.76 -39.56,13.46 -88.35,13.27 -131.42,13.27l0 -15.64c24.36,0 117.58,-4.68 133.47,-19.04 6.9,-6.23 10.93,-30.76 11.22,-43.53 -28.05,-14.84 -126.78,-35.19 -172.07,-35.19 -76.95,0 -105.29,23.04 -149.18,58.08 -10.16,8.11 -16.14,15.86 -25.74,25.1 -17.82,17.17 -71.93,60.35 -83.18,77.16 14.08,19.22 75.93,65.1 89.94,86.03 17.2,-9.1 33.58,-16.79 52.14,-26.07 10.25,-5.12 16.81,-8.62 26.04,-13.33 15.44,-7.88 10.73,-6.15 27.88,-4.55 90.33,8.42 129.92,8.76 218.52,8.76 24.81,0 33.42,-11.43 47.52,-22.87l158.83 -169.66c8.16,-9.17 9.97,-10.34 18.22,-20.88 13.02,-16.63 60.83,-68.88 64.81,-83.79 -51.61,-27.31 -54.48,-16.16 -101.49,11.91 -26.32,15.72 -140.42,97.17 -156.61,101.49z"/>
    <path class="fil1" d="M658.71 472.39c82.27,0 102.59,-84.9 61.81,-128.29 -46.85,-49.83 -132.71,-19.69 -134.73,50.51 -1.12,38.87 31.58,77.77 72.93,77.77z"/>
    <path class="fil1" d="M416.26 499.76c0,42.56 -2.34,18.93 76.59,32.91 27.29,4.83 54.51,17.36 79.83,17.93 41.02,-77.53 -21.43,-132.96 -70.39,-132.96 -44.46,0 -86.03,38.32 -86.03,82.12z"/>
    <path class="fil1" d="M443.63 300.32c0,77.72 115.61,75.65 115.61,0 0,-75.13 -115.61,-78.62 -115.61,0z"/>
   </g>
  </g>
 </g>
</svg>
